<svg width="26" height="28" viewBox="0 0 26 30" fill="none" xmlns="http://www.w3.org/2000/svg">
<path d="M23.9263 21.5225L23.7638 21.32C22.4775 19.6938 21.4025 18.8475 20.48 18.7363C19.6825 18.6275 18.9113 19.1788 18.0913 19.7463L17.215 20.2938C17.11 20.3463 17.0063 20.3888 16.9088 20.4175C16.3963 20.5625 15.1025 20.6475 14.37 19.9775C13.5175 19.1975 12.195 17.77 11.1663 16.5225C10.1838 15.2313 9.10375 13.6213 8.54001 12.6075C8.06376 11.7488 8.46251 10.5475 8.72875 10.1025C8.78126 10.015 8.85001 9.92879 8.92626 9.84379L9.69876 9.13004C9.71001 9.11879 9.715 9.10504 9.72501 9.09504C9.7325 9.08754 9.745 9.09004 9.75375 9.08379C10.4513 8.49504 11.1725 7.88879 11.2713 7.11004C11.3875 6.19504 10.8188 4.95754 9.53001 3.33254L9.3725 3.13004C8.575 2.10754 7.36876 0.561292 5.63626 0.816292C4.95501 0.917542 4.34625 1.15004 3.71875 1.54379C3.7125 1.54754 3.70876 1.55504 3.70376 1.55879C3.69876 1.56254 3.69251 1.56254 3.68751 1.56629L2.81376 2.21379C2.80501 2.21879 2.8 2.23004 2.79125 2.23754C2.78501 2.24379 2.77501 2.24504 2.7675 2.25129C2.66625 2.33629 2.56501 2.42379 2.46501 2.51379C1.57876 3.30379 -0.339995 5.59754 0.968755 9.84004C1.81376 12.58 3.55626 15.7775 6.02001 19.105L5.99625 19.125L7.35501 20.8175L7.36626 20.8088C10.0375 23.9688 12.7563 26.4113 15.2475 27.89C16.91 28.8775 18.3625 29.2038 19.5575 29.2038C21.13 29.2038 22.2563 28.6388 22.8213 28.2713L23.1763 28.0338C23.2163 28.0063 23.245 27.9675 23.2738 27.9325L24.0475 27.35C24.0563 27.3425 24.0613 27.3325 24.07 27.325C24.0738 27.3213 24.08 27.3225 24.085 27.3188C24.635 26.8163 25.0163 26.29 25.2813 25.6663C25.9675 24.0675 24.7388 22.5363 23.9263 21.5225ZM24.3625 25.2738C24.1563 25.7588 23.855 26.1713 23.42 26.5713L22.2688 27.4375C21.2263 28.115 18.9975 28.9525 15.76 27.03C13.2688 25.5513 10.5263 23.0513 7.82751 19.8L7.09751 18.8775C4.55625 15.5075 2.76876 12.28 1.92501 9.54504C0.828755 5.98879 2.21 4.08129 3.135 3.25754C3.22875 3.17254 3.3225 3.09379 3.415 3.01504L3.41876 3.01129L4.25751 2.39004C4.76751 2.06754 5.24001 1.88754 5.78376 1.80504C6.94501 1.63004 7.89001 2.85504 8.58376 3.74504L8.74625 3.95129C10.1863 5.76754 10.325 6.63129 10.28 6.98379C10.23 7.37504 9.635 7.87629 9.11 8.31754L9.03626 8.38004C9.03376 8.38254 9.03251 8.38629 9.03001 8.38879C9.02626 8.39129 9.0225 8.39254 9.01875 8.39504L8.22 9.13379C8.215 9.13879 8.21251 9.14504 8.20751 9.15129C8.20251 9.15754 8.1925 9.16004 8.1875 9.16629C8.06375 9.30504 7.9575 9.44379 7.87125 9.58754C7.4225 10.3388 6.99876 11.8913 7.66751 13.0925C8.25126 14.1425 9.3625 15.8013 10.3838 17.1413C11.4513 18.4363 12.8125 19.9063 13.695 20.7125C14.3563 21.3163 15.2763 21.5188 16.0725 21.5188C16.4988 21.5188 16.89 21.46 17.1863 21.3763C17.3425 21.3313 17.5038 21.2663 17.67 21.185C17.68 21.18 17.685 21.1713 17.695 21.165C17.7 21.1625 17.7075 21.1638 17.7125 21.16L18.64 20.58C18.67 20.56 18.69 20.5338 18.715 20.5088L18.7263 20.5213C19.2975 20.125 19.9488 19.66 20.3563 19.7275C20.7175 19.7713 21.5375 20.1188 22.98 21.94L23.1463 22.1488C23.8488 23.025 24.8113 24.225 24.3625 25.2738Z" fill="white"/>
</svg>
